
<svg xmlns="http://www.w3.org/2000/svg" viewBox="0 0 800 600" fill="none">
  <rect width="800" height="600" fill="#f8f9fa"/>
  <path d="M400 100C241.8 100 113.9 227.9 113.9 386.1C113.9 544.3 241.8 672.2 400 672.2C558.2 672.2 686.1 544.3 686.1 386.1C686.1 227.9 558.2 100 400 100Z" fill="#e9ecef"/>
  <path d="M400 150C269.6 150 163.9 255.7 163.9 386.1C163.9 516.5 269.6 622.2 400 622.2C530.4 622.2 636.1 516.5 636.1 386.1C636.1 255.7 530.4 150 400 150Z" fill="#dee2e6"/>
  <path d="M400 200C297.5 200 213.9 283.6 213.9 386.1C213.9 488.6 297.5 572.2 400 572.2C502.5 572.2 586.1 488.6 586.1 386.1C586.1 283.6 502.5 200 400 200Z" fill="#ced4da"/>
  <path d="M400 250C325.4 250 263.9 311.5 263.9 386.1C263.9 460.7 325.4 522.2 400 522.2C474.6 522.2 536.1 460.7 536.1 386.1C536.1 311.5 474.6 250 400 250Z" fill="#adb5bd"/>
  <path d="M400 300C353.3 300 313.9 339.4 313.9 386.1C313.9 432.8 353.3 472.2 400 472.2C446.7 472.2 486.1 432.8 486.1 386.1C486.1 339.4 446.7 300 400 300Z" fill="#6c757d"/>
  <path d="M400 350C381.2 350 363.9 367.3 363.9 386.1C363.9 404.9 381.2 422.2 400 422.2C418.8 422.2 436.1 404.9 436.1 386.1C436.1 367.3 418.8 350 400 350Z" fill="#495057"/>
  <text x="400" y="150" text-anchor="middle" font-family="Arial" font-size="24" fill="#212529" font-weight="bold">مرحباً بك في منصة تحليل الأسواق المالية</text>
  <text x="400" y="500" text-anchor="middle" font-family="Arial" font-size="18" fill="#212529">منصة متكاملة للتحليل الفني والاستراتيجي للأسواق المالية</text>
</svg>
